<?xml version="1.0" encoding="UTF-8" standalone="no"?><!DOCTYPE svg PUBLIC "-//W3C//DTD SVG 1.1//EN" "http://www.w3.org/Graphics/SVG/1.1/DTD/svg11.dtd"><!-- Generated by graphviz version 2.40.1 (20161225.0304)
 --><!-- Title: B&#45;1.c.012t.cfg Pages: 1 --><svg xmlns="http://www.w3.org/2000/svg" xmlns:xlink="http://www.w3.org/1999/xlink" width="322pt" height="420pt" viewBox="0.00 0.00 322.41 420.40">
<g id="graph0" class="graph" transform="scale(1 1) rotate(0) translate(4 416.4)">
<title>B-1.c.012t.cfg</title>
<polygon fill="#ffffff" stroke="transparent" points="-4,4 -4,-416.4 318.4134,-416.4 318.4134,4 -4,4"/>
<g id="clust1" class="cluster">
<title>cluster_AddTwo</title>
<polygon fill="none" stroke="#000000" stroke-dasharray="5,2" points="12.4134,-8 12.4134,-404.4 150.4134,-404.4 150.4134,-8 12.4134,-8"/>
<text text-anchor="middle" x="81.4134" y="-387.8" font-family="Times,serif" font-size="14.00" fill="#000000">AddTwo ()</text>
</g>
<g id="clust2" class="cluster">
<title>cluster_main</title>
<polygon fill="none" stroke="#000000" stroke-dasharray="5,2" points="158.4134,-8 158.4134,-404.4 306.4134,-404.4 306.4134,-8 158.4134,-8"/>
<text text-anchor="middle" x="232.4134" y="-387.8" font-family="Times,serif" font-size="14.00" fill="#000000">main ()</text>
</g>
<!-- fn_0_basic_block_0 -->
<g id="node1" class="node">
<title>fn_0_basic_block_0</title>
<polygon fill="#ffffff" stroke="#000000" points="81.4134,-371.6 20.1734,-353.6 81.4134,-335.6 142.6533,-353.6 81.4134,-371.6"/>
<polyline fill="none" stroke="#000000" points="31.6864,-356.984 31.6864,-350.216 "/>
<polyline fill="none" stroke="#000000" points="69.9004,-338.984 92.9263,-338.984 "/>
<polyline fill="none" stroke="#000000" points="131.1404,-350.216 131.1404,-356.984 "/>
<polyline fill="none" stroke="#000000" points="92.9263,-368.216 69.9004,-368.216 "/>
<text text-anchor="middle" x="81.4134" y="-349.4" font-family="Times,serif" font-size="14.00" fill="#000000">ENTRY</text>
</g>
<!-- fn_0_basic_block_1 -->
<g id="node2" class="node">
<title>fn_0_basic_block_1</title>
<polygon fill="#ffffff" stroke="#000000" points="89.4134,-52 42.5136,-34 89.4134,-16 136.3132,-34 89.4134,-52"/>
<polyline fill="none" stroke="#000000" points="53.7168,-38.2998 53.7168,-29.7002 "/>
<polyline fill="none" stroke="#000000" points="78.2101,-20.2998 100.6166,-20.2998 "/>
<polyline fill="none" stroke="#000000" points="125.1099,-29.7002 125.1099,-38.2998 "/>
<polyline fill="none" stroke="#000000" points="100.6166,-47.7002 78.2101,-47.7002 "/>
<text text-anchor="middle" x="89.4134" y="-29.8" font-family="Times,serif" font-size="14.00" fill="#000000">EXIT</text>
</g>
<!-- fn_0_basic_block_0&#45;&gt;fn_0_basic_block_1 -->
<!-- fn_0_basic_block_2 -->
<g id="node3" class="node">
<title>fn_0_basic_block_2</title>
<polygon fill="#d3d3d3" stroke="#000000" points="44.1102,-212.3 44.1102,-286.7 126.7166,-286.7 126.7166,-212.3 44.1102,-212.3"/>
<text text-anchor="start" x="52.1102" y="-270.1" font-family="Times,serif" font-size="14.00" fill="#000000">&lt;bb 2&gt;:</text>
<polyline fill="none" stroke="#000000" points="44.1102,-261.9 126.7166,-261.9 "/>
<text text-anchor="start" x="52.1102" y="-245.3" font-family="Times,serif" font-size="14.00" fill="#000000">a = a + 2;</text>
<polyline fill="none" stroke="#000000" points="44.1102,-237.1 126.7166,-237.1 "/>
<text text-anchor="start" x="52.1102" y="-220.5" font-family="Times,serif" font-size="14.00" fill="#000000">D.1917 = a;</text>
</g>
<!-- fn_0_basic_block_0&#45;&gt;fn_0_basic_block_2 -->
<g id="edge1" class="edge">
<title>fn_0_basic_block_0:s-&gt;fn_0_basic_block_2:n</title>
<path fill="none" stroke="#0000ff" stroke-width="2" d="M81.4134,-335.6C81.4134,-317.6397 84.105,-310.8386 85.0723,-296.8886"/>
<polygon fill="#0000ff" stroke="#0000ff" stroke-width="2" points="88.5833,-296.6095 85.4134,-286.5 81.5871,-296.3797 88.5833,-296.6095"/>
</g>
<!-- fn_0_basic_block_3 -->
<g id="node4" class="node">
<title>fn_0_basic_block_3</title>
<polygon fill="#d3d3d3" stroke="#000000" points="40.2016,-88.5 40.2016,-162.9 138.6252,-162.9 138.6252,-88.5 40.2016,-88.5"/>
<text text-anchor="start" x="48.2016" y="-146.3" font-family="Times,serif" font-size="14.00" fill="#000000">&lt;bb 3&gt;:</text>
<polyline fill="none" stroke="#000000" points="40.2016,-138.1 138.6252,-138.1 "/>
<text text-anchor="start" x="48.2016" y="-121.5" font-family="Times,serif" font-size="14.00" fill="#000000">&lt;L0&gt;:</text>
<polyline fill="none" stroke="#000000" points="40.2016,-113.3 138.6252,-113.3 "/>
<text text-anchor="start" x="48.2016" y="-96.7" font-family="Times,serif" font-size="14.00" fill="#000000">return D.1917;</text>
</g>
<!-- fn_0_basic_block_2&#45;&gt;fn_0_basic_block_3 -->
<g id="edge2" class="edge">
<title>fn_0_basic_block_2:s-&gt;fn_0_basic_block_3:n</title>
<path fill="none" stroke="#0000ff" stroke-width="2" d="M85.4134,-212.5C85.4134,-194.1118 88.1565,-187.2544 89.0995,-172.8299"/>
<polygon fill="#0000ff" stroke="#0000ff" stroke-width="2" points="92.6019,-172.8036 89.4134,-162.7 85.6052,-172.5868 92.6019,-172.8036"/>
</g>
<!-- fn_0_basic_block_3&#45;&gt;fn_0_basic_block_1 -->
<g id="edge3" class="edge">
<title>fn_0_basic_block_3:s-&gt;fn_0_basic_block_1:n</title>
<path fill="none" stroke="#000000" stroke-width="2" d="M89.4134,-88.7C89.4134,-76.3392 89.4134,-71.0038 89.4134,-62.046"/>
<polygon fill="#000000" stroke="#000000" stroke-width="2" points="92.9135,-62 89.4134,-52 85.9135,-62 92.9135,-62"/>
</g>
<!-- fn_1_basic_block_0 -->
<g id="node5" class="node">
<title>fn_1_basic_block_0</title>
<polygon fill="#ffffff" stroke="#000000" points="237.4134,-371.6 176.1734,-353.6 237.4134,-335.6 298.6533,-353.6 237.4134,-371.6"/>
<polyline fill="none" stroke="#000000" points="187.6864,-356.984 187.6864,-350.216 "/>
<polyline fill="none" stroke="#000000" points="225.9004,-338.984 248.9263,-338.984 "/>
<polyline fill="none" stroke="#000000" points="287.1404,-350.216 287.1404,-356.984 "/>
<polyline fill="none" stroke="#000000" points="248.9263,-368.216 225.9004,-368.216 "/>
<text text-anchor="middle" x="237.4134" y="-349.4" font-family="Times,serif" font-size="14.00" fill="#000000">ENTRY</text>
</g>
<!-- fn_1_basic_block_1 -->
<g id="node6" class="node">
<title>fn_1_basic_block_1</title>
<polygon fill="#ffffff" stroke="#000000" points="242.4134,-52 195.5136,-34 242.4134,-16 289.3132,-34 242.4134,-52"/>
<polyline fill="none" stroke="#000000" points="206.7168,-38.2998 206.7168,-29.7002 "/>
<polyline fill="none" stroke="#000000" points="231.2101,-20.2998 253.6166,-20.2998 "/>
<polyline fill="none" stroke="#000000" points="278.1099,-29.7002 278.1099,-38.2998 "/>
<polyline fill="none" stroke="#000000" points="253.6166,-47.7002 231.2101,-47.7002 "/>
<text text-anchor="middle" x="242.4134" y="-29.8" font-family="Times,serif" font-size="14.00" fill="#000000">EXIT</text>
</g>
<!-- fn_1_basic_block_0&#45;&gt;fn_1_basic_block_1 -->
<!-- fn_1_basic_block_2 -->
<g id="node7" class="node">
<title>fn_1_basic_block_2</title>
<polygon fill="#d3d3d3" stroke="#000000" points="186.7273,-199.9 186.7273,-299.1 298.0995,-299.1 298.0995,-199.9 186.7273,-199.9"/>
<text text-anchor="start" x="194.7273" y="-282.5" font-family="Times,serif" font-size="14.00" fill="#000000">&lt;bb 2&gt;:</text>
<polyline fill="none" stroke="#000000" points="186.7273,-274.3 298.0995,-274.3 "/>
<text text-anchor="start" x="194.7273" y="-257.7" font-family="Times,serif" font-size="14.00" fill="#000000">x = 3;</text>
<polyline fill="none" stroke="#000000" points="186.7273,-249.5 298.0995,-249.5 "/>
<text text-anchor="start" x="194.7273" y="-232.9" font-family="Times,serif" font-size="14.00" fill="#000000">x = AddTwo (x);</text>
<polyline fill="none" stroke="#000000" points="186.7273,-224.7 298.0995,-224.7 "/>
<text text-anchor="start" x="194.7273" y="-208.1" font-family="Times,serif" font-size="14.00" fill="#000000">D.1919 = x;</text>
</g>
<!-- fn_1_basic_block_0&#45;&gt;fn_1_basic_block_2 -->
<g id="edge5" class="edge">
<title>fn_1_basic_block_0:s-&gt;fn_1_basic_block_2:n</title>
<path fill="none" stroke="#0000ff" stroke-width="2" d="M237.4134,-335.6C237.4134,-323.4518 240.2259,-318.3308 241.6321,-309.6962"/>
<polygon fill="#0000ff" stroke="#0000ff" stroke-width="2" points="245.1391,-309.7382 242.4134,-299.5 238.1595,-309.2034 245.1391,-309.7382"/>
</g>
<!-- fn_1_basic_block_3 -->
<g id="node8" class="node">
<title>fn_1_basic_block_3</title>
<polygon fill="#d3d3d3" stroke="#000000" points="193.2016,-88.5 193.2016,-162.9 291.6252,-162.9 291.6252,-88.5 193.2016,-88.5"/>
<text text-anchor="start" x="201.2016" y="-146.3" font-family="Times,serif" font-size="14.00" fill="#000000">&lt;bb 3&gt;:</text>
<polyline fill="none" stroke="#000000" points="193.2016,-138.1 291.6252,-138.1 "/>
<text text-anchor="start" x="201.2016" y="-121.5" font-family="Times,serif" font-size="14.00" fill="#000000">&lt;L0&gt;:</text>
<polyline fill="none" stroke="#000000" points="193.2016,-113.3 291.6252,-113.3 "/>
<text text-anchor="start" x="201.2016" y="-96.7" font-family="Times,serif" font-size="14.00" fill="#000000">return D.1919;</text>
</g>
<!-- fn_1_basic_block_2&#45;&gt;fn_1_basic_block_3 -->
<g id="edge6" class="edge">
<title>fn_1_basic_block_2:s-&gt;fn_1_basic_block_3:n</title>
<path fill="none" stroke="#0000ff" stroke-width="2" d="M242.4134,-199.5C242.4134,-187.1056 242.4134,-181.7556 242.4134,-172.7733"/>
<polygon fill="#0000ff" stroke="#0000ff" stroke-width="2" points="245.9135,-172.7 242.4134,-162.7 238.9135,-172.7 245.9135,-172.7"/>
</g>
<!-- fn_1_basic_block_3&#45;&gt;fn_1_basic_block_1 -->
<g id="edge7" class="edge">
<title>fn_1_basic_block_3:s-&gt;fn_1_basic_block_1:n</title>
<path fill="none" stroke="#000000" stroke-width="2" d="M242.4134,-88.7C242.4134,-76.3392 242.4134,-71.0038 242.4134,-62.046"/>
<polygon fill="#000000" stroke="#000000" stroke-width="2" points="245.9135,-62 242.4134,-52 238.9135,-62 245.9135,-62"/>
</g>
</g>
</svg>